<svg id="Layer_1" data-name="Layer 1" xmlns="http://www.w3.org/2000/svg" viewBox="0 0 1024 807.15"><defs><style>.cls-1{fill:#182b43;}.cls-2{fill:#ffc200;}</style></defs><polygon class="cls-1" points="825.73 254.02 688.89 368.84 649.35 402.03 558.47 478.28 591.53 517.68 678.96 444.32 718.51 411.13 858.79 293.42 825.73 254.02"/><rect class="cls-2" x="190.38" y="755.72" width="87.49" height="51.43"/><rect class="cls-2" x="329.33" y="755.72" width="87.49" height="51.43"/><rect class="cls-2" x="468.23" y="755.72" width="87.49" height="51.43"/><polygon class="cls-2" points="138.92 807.15 190.35 807.15 190.35 453.15 138.92 482.85 138.92 807.15"/><polygon class="cls-2" points="277.87 807.15 329.3 807.15 329.3 372.93 277.87 402.63 277.87 807.15"/><polygon class="cls-2" points="416.82 322.4 416.82 807.15 468.25 807.15 468.25 292.71 416.82 322.4"/><polygon class="cls-1" points="416.82 29.7 51.43 240.66 0 270.35 0 329.74 0 503.67 0 563.05 0 807.15 51.43 807.15 51.43 533.36 51.43 473.97 51.43 300.05 416.82 89.09 468.25 59.39 468.25 0.01 416.82 29.7"/><polygon class="cls-1" points="416.82 263.02 329.3 313.55 277.87 343.24 190.35 393.77 138.92 423.46 51.43 473.97 51.43 533.36 138.92 482.85 190.35 453.15 277.87 402.63 329.3 372.93 416.82 322.4 468.25 292.71 468.25 233.32 416.82 263.02"/><polygon class="cls-1" points="718.51 411.13 688.89 368.84 649.35 402.03 678.96 444.32 845.67 682.4 887.8 652.9 718.51 411.13"/><polygon class="cls-2" points="972.57 240.65 607.19 29.69 607.18 29.69 555.76 0 555.76 59.39 607.18 89.08 607.19 89.08 972.57 300.04 972.57 473.96 972.57 533.35 972.57 755.72 694.63 755.72 694.63 807.15 1022.2 807.15 1022.2 807.14 1024 807.14 1024 563.04 1024 503.66 1024 329.73 1024 270.34 972.57 240.65"/><polygon class="cls-1" points="607.18 89.08 607.18 29.69 555.76 0 555.76 59.39 555.76 807.14 607.19 807.14 607.19 89.08 607.18 89.08"/></svg>